<svg width="128" height="128" viewBox="0 0 128 128" fill="none" xmlns="http://www.w3.org/2000/svg">
  <rect width="128" height="128" rx="28" fill="#1F6FEB"/>
  <path d="M33 35C33 28.3726 38.3726 23 45 23C51.6274 23 57 28.3726 57 35C57 40.4228 53.4025 44.9853 48.4576 46.4384V58.4092L81.1058 58.4021C81.7658 53.2093 86.2021 49.2 91.575 49.2C97.4021 49.2 102.125 53.9229 102.125 59.75C102.125 65.5771 97.4021 70.3 91.575 70.3C86.2002 70.3 81.7626 66.2879 81.1041 61.0924L48.4576 61.0996V81.5616C53.4025 83.0147 57 87.5772 57 93C57 99.6274 51.6274 105 45 105C38.3726 105 33 99.6274 33 93C33 87.5772 36.5975 83.0147 41.5424 81.5616V46.4384C36.5975 44.9853 33 40.4228 33 35Z" fill="white"/>
  <circle cx="45" cy="35" r="6" fill="#1F6FEB"/>
  <circle cx="45" cy="93" r="6" fill="#1F6FEB"/>
  <circle cx="91.575" cy="59.75" r="5.25" fill="#1F6FEB"/>
</svg>
